<mxfile host="app.diagrams.net" agent="Mozilla/5.0 (Windows NT 10.0; Win64; x64) AppleWebKit/537.36 (KHTML, like Gecko) Chrome/130.0.0.0 Safari/537.36 Edg/130.0.0.0" version="24.8.4">
  <diagram name="Page-1" id="e2o4plj3u_6KIa59DkHf">
    <mxGraphModel dx="3463" dy="1849" grid="1" gridSize="10" guides="1" tooltips="1" connect="1" arrows="1" fold="1" page="1" pageScale="1" pageWidth="2336" pageHeight="1654" background="#FFFFFF" math="0" shadow="0">
      <root>
        <mxCell id="0" />
        <mxCell id="1" parent="0" />
        <mxCell id="T0HQKuTrpSQo629NhJkZ-26" style="edgeStyle=orthogonalEdgeStyle;shape=connector;curved=0;rounded=1;orthogonalLoop=1;jettySize=auto;html=1;entryX=0;entryY=0.5;entryDx=0;entryDy=0;strokeColor=default;align=center;verticalAlign=middle;fontFamily=Helvetica;fontSize=11;fontColor=default;labelBackgroundColor=default;endArrow=none;endFill=0;" parent="1" source="T0HQKuTrpSQo629NhJkZ-2" target="T0HQKuTrpSQo629NhJkZ-25" edge="1">
          <mxGeometry relative="1" as="geometry" />
        </mxCell>
        <mxCell id="BS8HZkznhosSry5eegpy-5" style="edgeStyle=orthogonalEdgeStyle;shape=connector;curved=0;rounded=1;orthogonalLoop=1;jettySize=auto;html=1;entryX=0;entryY=0.5;entryDx=0;entryDy=0;strokeColor=default;align=center;verticalAlign=middle;fontFamily=Helvetica;fontSize=11;fontColor=default;labelBackgroundColor=default;endArrow=none;endFill=0;" parent="1" source="T0HQKuTrpSQo629NhJkZ-2" target="T0HQKuTrpSQo629NhJkZ-23" edge="1">
          <mxGeometry relative="1" as="geometry" />
        </mxCell>
        <mxCell id="BS8HZkznhosSry5eegpy-50" style="edgeStyle=orthogonalEdgeStyle;shape=connector;curved=0;rounded=1;orthogonalLoop=1;jettySize=auto;html=1;entryX=0;entryY=0.5;entryDx=0;entryDy=0;strokeColor=default;align=center;verticalAlign=middle;fontFamily=Helvetica;fontSize=11;fontColor=default;labelBackgroundColor=default;endArrow=none;endFill=0;" parent="1" source="T0HQKuTrpSQo629NhJkZ-2" target="BS8HZkznhosSry5eegpy-49" edge="1">
          <mxGeometry relative="1" as="geometry" />
        </mxCell>
        <mxCell id="OjsmBEXkPZqhEoauiUw0-24" style="edgeStyle=orthogonalEdgeStyle;rounded=0;orthogonalLoop=1;jettySize=auto;html=1;endArrow=block;endFill=0;" edge="1" parent="1" source="T0HQKuTrpSQo629NhJkZ-2">
          <mxGeometry relative="1" as="geometry">
            <mxPoint x="1635" y="520" as="targetPoint" />
          </mxGeometry>
        </mxCell>
        <mxCell id="OjsmBEXkPZqhEoauiUw0-26" style="edgeStyle=orthogonalEdgeStyle;rounded=1;orthogonalLoop=1;jettySize=auto;html=1;curved=0;endArrow=none;endFill=0;" edge="1" parent="1" source="T0HQKuTrpSQo629NhJkZ-2" target="OjsmBEXkPZqhEoauiUw0-25">
          <mxGeometry relative="1" as="geometry" />
        </mxCell>
        <mxCell id="T0HQKuTrpSQo629NhJkZ-2" value="Analista" style="shape=umlActor;verticalLabelPosition=bottom;verticalAlign=top;html=1;outlineConnect=0;" parent="1" vertex="1">
          <mxGeometry x="1621" y="900" width="29" height="60" as="geometry" />
        </mxCell>
        <mxCell id="OjsmBEXkPZqhEoauiUw0-53" style="edgeStyle=orthogonalEdgeStyle;shape=connector;curved=0;rounded=1;orthogonalLoop=1;jettySize=auto;html=1;strokeColor=default;align=center;verticalAlign=middle;fontFamily=Helvetica;fontSize=11;fontColor=default;labelBackgroundColor=default;endArrow=none;endFill=0;" edge="1" parent="1" source="T0HQKuTrpSQo629NhJkZ-4" target="no5BiNzNvJ6rJiU1EJ-R-22">
          <mxGeometry relative="1" as="geometry" />
        </mxCell>
        <mxCell id="OjsmBEXkPZqhEoauiUw0-57" style="edgeStyle=orthogonalEdgeStyle;shape=connector;curved=0;rounded=1;orthogonalLoop=1;jettySize=auto;html=1;strokeColor=default;align=center;verticalAlign=middle;fontFamily=Helvetica;fontSize=11;fontColor=default;labelBackgroundColor=default;endArrow=none;endFill=0;" edge="1" parent="1" source="T0HQKuTrpSQo629NhJkZ-4" target="T0HQKuTrpSQo629NhJkZ-36">
          <mxGeometry relative="1" as="geometry" />
        </mxCell>
        <mxCell id="OjsmBEXkPZqhEoauiUw0-71" style="edgeStyle=orthogonalEdgeStyle;shape=connector;curved=0;rounded=1;orthogonalLoop=1;jettySize=auto;html=1;strokeColor=default;align=center;verticalAlign=middle;fontFamily=Helvetica;fontSize=11;fontColor=default;labelBackgroundColor=default;endArrow=none;endFill=0;" edge="1" parent="1" source="T0HQKuTrpSQo629NhJkZ-4" target="no5BiNzNvJ6rJiU1EJ-R-18">
          <mxGeometry relative="1" as="geometry">
            <Array as="points">
              <mxPoint x="1031" y="400" />
              <mxPoint x="941" y="400" />
            </Array>
          </mxGeometry>
        </mxCell>
        <mxCell id="OjsmBEXkPZqhEoauiUw0-72" style="edgeStyle=orthogonalEdgeStyle;shape=connector;curved=0;rounded=1;orthogonalLoop=1;jettySize=auto;html=1;strokeColor=default;align=center;verticalAlign=middle;fontFamily=Helvetica;fontSize=11;fontColor=default;labelBackgroundColor=default;endArrow=none;endFill=0;" edge="1" parent="1" source="T0HQKuTrpSQo629NhJkZ-4" target="T0HQKuTrpSQo629NhJkZ-37">
          <mxGeometry relative="1" as="geometry">
            <Array as="points">
              <mxPoint x="1031" y="400" />
              <mxPoint x="1121" y="400" />
            </Array>
          </mxGeometry>
        </mxCell>
        <mxCell id="OjsmBEXkPZqhEoauiUw0-75" style="edgeStyle=orthogonalEdgeStyle;shape=connector;curved=0;rounded=1;orthogonalLoop=1;jettySize=auto;html=1;strokeColor=default;align=center;verticalAlign=middle;fontFamily=Helvetica;fontSize=11;fontColor=default;labelBackgroundColor=default;endArrow=none;endFill=0;" edge="1" parent="1" source="T0HQKuTrpSQo629NhJkZ-4" target="no5BiNzNvJ6rJiU1EJ-R-3">
          <mxGeometry relative="1" as="geometry" />
        </mxCell>
        <mxCell id="OjsmBEXkPZqhEoauiUw0-76" style="edgeStyle=orthogonalEdgeStyle;shape=connector;curved=0;rounded=1;orthogonalLoop=1;jettySize=auto;html=1;entryX=1;entryY=0.5;entryDx=0;entryDy=0;strokeColor=default;align=center;verticalAlign=middle;fontFamily=Helvetica;fontSize=11;fontColor=default;labelBackgroundColor=default;endArrow=none;endFill=0;" edge="1" parent="1" source="T0HQKuTrpSQo629NhJkZ-4" target="Oo23eMLOR-PGpC1SXpXI-5">
          <mxGeometry relative="1" as="geometry">
            <Array as="points">
              <mxPoint x="940" y="470" />
              <mxPoint x="940" y="570" />
            </Array>
          </mxGeometry>
        </mxCell>
        <mxCell id="T0HQKuTrpSQo629NhJkZ-4" value="Sondaggista" style="shape=umlActor;verticalLabelPosition=bottom;verticalAlign=top;html=1;outlineConnect=0;" parent="1" vertex="1">
          <mxGeometry x="1016" y="440" width="30" height="60" as="geometry" />
        </mxCell>
        <mxCell id="OjsmBEXkPZqhEoauiUw0-39" style="edgeStyle=orthogonalEdgeStyle;shape=connector;curved=0;rounded=1;orthogonalLoop=1;jettySize=auto;html=1;strokeColor=default;align=center;verticalAlign=middle;fontFamily=Helvetica;fontSize=11;fontColor=default;labelBackgroundColor=default;endArrow=block;endFill=0;startArrow=none;startFill=0;" edge="1" parent="1" source="T0HQKuTrpSQo629NhJkZ-5">
          <mxGeometry relative="1" as="geometry">
            <mxPoint x="1610" y="930" as="targetPoint" />
          </mxGeometry>
        </mxCell>
        <mxCell id="OjsmBEXkPZqhEoauiUw0-54" style="edgeStyle=orthogonalEdgeStyle;shape=connector;curved=0;rounded=1;orthogonalLoop=1;jettySize=auto;html=1;entryX=0.5;entryY=1;entryDx=0;entryDy=0;strokeColor=default;align=center;verticalAlign=middle;fontFamily=Helvetica;fontSize=11;fontColor=default;labelBackgroundColor=default;endArrow=none;endFill=0;" edge="1" parent="1" source="T0HQKuTrpSQo629NhJkZ-5" target="no5BiNzNvJ6rJiU1EJ-R-22">
          <mxGeometry relative="1" as="geometry" />
        </mxCell>
        <mxCell id="OjsmBEXkPZqhEoauiUw0-56" style="edgeStyle=orthogonalEdgeStyle;shape=connector;curved=0;rounded=1;orthogonalLoop=1;jettySize=auto;html=1;entryX=0.5;entryY=1;entryDx=0;entryDy=0;strokeColor=default;align=center;verticalAlign=middle;fontFamily=Helvetica;fontSize=11;fontColor=default;labelBackgroundColor=default;endArrow=none;endFill=0;" edge="1" parent="1" source="T0HQKuTrpSQo629NhJkZ-5" target="T0HQKuTrpSQo629NhJkZ-33">
          <mxGeometry relative="1" as="geometry" />
        </mxCell>
        <mxCell id="OjsmBEXkPZqhEoauiUw0-58" style="edgeStyle=orthogonalEdgeStyle;shape=connector;curved=0;rounded=1;orthogonalLoop=1;jettySize=auto;html=1;strokeColor=default;align=center;verticalAlign=middle;fontFamily=Helvetica;fontSize=11;fontColor=default;labelBackgroundColor=default;endArrow=none;endFill=0;" edge="1" parent="1" source="T0HQKuTrpSQo629NhJkZ-5" target="no5BiNzNvJ6rJiU1EJ-R-25">
          <mxGeometry relative="1" as="geometry" />
        </mxCell>
        <mxCell id="OjsmBEXkPZqhEoauiUw0-63" style="edgeStyle=orthogonalEdgeStyle;shape=connector;curved=0;rounded=1;orthogonalLoop=1;jettySize=auto;html=1;entryX=0.5;entryY=1;entryDx=0;entryDy=0;strokeColor=default;align=center;verticalAlign=middle;fontFamily=Helvetica;fontSize=11;fontColor=default;labelBackgroundColor=default;endArrow=none;endFill=0;" edge="1" parent="1" target="OjsmBEXkPZqhEoauiUw0-61">
          <mxGeometry relative="1" as="geometry">
            <mxPoint x="1030" y="930" as="sourcePoint" />
            <mxPoint x="502.00000000000034" y="805" as="targetPoint" />
            <Array as="points">
              <mxPoint x="571" y="930" />
              <mxPoint x="571" y="825" />
              <mxPoint x="394" y="825" />
            </Array>
          </mxGeometry>
        </mxCell>
        <mxCell id="OjsmBEXkPZqhEoauiUw0-65" style="edgeStyle=orthogonalEdgeStyle;shape=connector;curved=0;rounded=1;orthogonalLoop=1;jettySize=auto;html=1;entryX=1;entryY=0.5;entryDx=0;entryDy=0;strokeColor=default;align=center;verticalAlign=middle;fontFamily=Helvetica;fontSize=11;fontColor=default;labelBackgroundColor=default;endArrow=none;endFill=0;" edge="1" parent="1" target="OjsmBEXkPZqhEoauiUw0-64">
          <mxGeometry relative="1" as="geometry">
            <mxPoint x="1030" y="930" as="sourcePoint" />
            <mxPoint x="504.00000000000273" y="915" as="targetPoint" />
            <Array as="points">
              <mxPoint x="570" y="930" />
              <mxPoint x="570" y="885" />
            </Array>
          </mxGeometry>
        </mxCell>
        <mxCell id="OjsmBEXkPZqhEoauiUw0-79" style="edgeStyle=orthogonalEdgeStyle;shape=connector;curved=0;rounded=1;orthogonalLoop=1;jettySize=auto;html=1;strokeColor=default;align=center;verticalAlign=middle;fontFamily=Helvetica;fontSize=11;fontColor=default;labelBackgroundColor=default;endArrow=none;endFill=0;" edge="1" parent="1" source="T0HQKuTrpSQo629NhJkZ-5" target="OjsmBEXkPZqhEoauiUw0-78">
          <mxGeometry relative="1" as="geometry" />
        </mxCell>
        <mxCell id="T0HQKuTrpSQo629NhJkZ-5" value="Amministratore" style="shape=umlActor;verticalLabelPosition=bottom;verticalAlign=top;html=1;outlineConnect=0;" parent="1" vertex="1">
          <mxGeometry x="1032" y="900" width="29" height="60" as="geometry" />
        </mxCell>
        <mxCell id="OjsmBEXkPZqhEoauiUw0-97" value="&lt;font style=&quot;font-size: 11px;&quot;&gt;&amp;lt;&amp;lt;extend&amp;gt;&amp;gt;&lt;/font&gt;" style="edgeStyle=orthogonalEdgeStyle;shape=connector;curved=0;rounded=1;orthogonalLoop=1;jettySize=auto;html=1;entryX=1;entryY=0.5;entryDx=0;entryDy=0;strokeColor=default;align=center;verticalAlign=middle;fontFamily=Helvetica;fontSize=11;fontColor=default;labelBackgroundColor=default;endArrow=open;endFill=0;fontStyle=2;dashed=1;dashPattern=12 12;" edge="1" parent="1" source="T0HQKuTrpSQo629NhJkZ-23" target="OjsmBEXkPZqhEoauiUw0-90">
          <mxGeometry relative="1" as="geometry">
            <Array as="points">
              <mxPoint x="1840" y="680" />
              <mxPoint x="1940" y="680" />
              <mxPoint x="1940" y="465" />
            </Array>
          </mxGeometry>
        </mxCell>
        <mxCell id="T0HQKuTrpSQo629NhJkZ-23" value="Vedere dati specifici&amp;nbsp;&lt;div&gt;delle zone&lt;/div&gt;" style="ellipse;whiteSpace=wrap;html=1;fontFamily=Helvetica;fontSize=11;fontColor=default;labelBackgroundColor=default;" parent="1" vertex="1">
          <mxGeometry x="1770" y="755" width="139" height="70" as="geometry" />
        </mxCell>
        <mxCell id="T0HQKuTrpSQo629NhJkZ-25" value="Visualizzare storico dei dati" style="ellipse;whiteSpace=wrap;html=1;fontFamily=Helvetica;fontSize=11;fontColor=default;labelBackgroundColor=default;" parent="1" vertex="1">
          <mxGeometry x="1770" y="1025" width="139" height="70" as="geometry" />
        </mxCell>
        <mxCell id="OjsmBEXkPZqhEoauiUw0-47" value="&amp;lt;&amp;lt;include&amp;gt;&amp;gt;" style="edgeStyle=orthogonalEdgeStyle;shape=connector;curved=0;rounded=1;orthogonalLoop=1;jettySize=auto;html=1;strokeColor=default;align=center;verticalAlign=middle;fontFamily=Helvetica;fontSize=11;fontColor=default;labelBackgroundColor=default;endArrow=open;endFill=0;dashed=1;dashPattern=12 12;fontStyle=2" edge="1" parent="1" source="T0HQKuTrpSQo629NhJkZ-33" target="T0HQKuTrpSQo629NhJkZ-36">
          <mxGeometry relative="1" as="geometry" />
        </mxCell>
        <mxCell id="T0HQKuTrpSQo629NhJkZ-33" value="Aggiungere sondaggi&lt;div&gt;&amp;nbsp;al sistema&lt;/div&gt;" style="ellipse;whiteSpace=wrap;html=1;fontFamily=Helvetica;fontSize=11;fontColor=default;labelBackgroundColor=default;" parent="1" vertex="1">
          <mxGeometry x="731.5" y="670" width="139" height="70" as="geometry" />
        </mxCell>
        <mxCell id="T0HQKuTrpSQo629NhJkZ-36" value="Presentare sondaggi" style="ellipse;whiteSpace=wrap;html=1;fontFamily=Helvetica;fontSize=11;fontColor=default;labelBackgroundColor=default;" parent="1" vertex="1">
          <mxGeometry x="961" y="670" width="139" height="70" as="geometry" />
        </mxCell>
        <mxCell id="T0HQKuTrpSQo629NhJkZ-37" value="Cancellare sondaggi" style="ellipse;whiteSpace=wrap;html=1;fontFamily=Helvetica;fontSize=11;fontColor=default;labelBackgroundColor=default;" parent="1" vertex="1">
          <mxGeometry x="1051" y="260" width="140" height="70" as="geometry" />
        </mxCell>
        <mxCell id="no5BiNzNvJ6rJiU1EJ-R-3" value="Aggiungere voti&amp;nbsp;&lt;div&gt;ai sondaggi&lt;/div&gt;" style="ellipse;whiteSpace=wrap;html=1;fontFamily=Helvetica;fontSize=11;fontColor=default;labelBackgroundColor=default;" parent="1" vertex="1">
          <mxGeometry x="776" y="435" width="140" height="70" as="geometry" />
        </mxCell>
        <mxCell id="no5BiNzNvJ6rJiU1EJ-R-14" style="edgeStyle=orthogonalEdgeStyle;shape=connector;curved=0;rounded=1;orthogonalLoop=1;jettySize=auto;html=1;strokeColor=default;align=center;verticalAlign=middle;fontFamily=Helvetica;fontSize=11;fontColor=default;labelBackgroundColor=default;endArrow=none;endFill=0;" parent="1" source="no5BiNzNvJ6rJiU1EJ-R-12" target="no5BiNzNvJ6rJiU1EJ-R-3" edge="1">
          <mxGeometry relative="1" as="geometry" />
        </mxCell>
        <mxCell id="no5BiNzNvJ6rJiU1EJ-R-12" value="Cittadino" style="shape=umlActor;verticalLabelPosition=bottom;verticalAlign=top;html=1;fontFamily=Helvetica;fontSize=11;fontColor=default;labelBackgroundColor=default;" parent="1" vertex="1">
          <mxGeometry x="596" y="440" width="30" height="60" as="geometry" />
        </mxCell>
        <mxCell id="Oo23eMLOR-PGpC1SXpXI-3" value="&lt;i&gt;&lt;font style=&quot;font-size: 12px;&quot;&gt;&amp;lt;&amp;lt;extend&amp;gt;&amp;gt;&lt;/font&gt;&lt;/i&gt;" style="edgeStyle=orthogonalEdgeStyle;shape=connector;curved=0;rounded=1;orthogonalLoop=1;jettySize=auto;html=1;entryX=0.5;entryY=1;entryDx=0;entryDy=0;dashed=1;dashPattern=12 12;strokeColor=default;align=center;verticalAlign=middle;fontFamily=Helvetica;fontSize=11;fontColor=default;labelBackgroundColor=default;startArrow=open;startFill=0;endArrow=none;endFill=0;" parent="1" source="no5BiNzNvJ6rJiU1EJ-R-18" target="Oo23eMLOR-PGpC1SXpXI-1" edge="1">
          <mxGeometry relative="1" as="geometry" />
        </mxCell>
        <mxCell id="no5BiNzNvJ6rJiU1EJ-R-18" value="Creare nuovi sondaggi" style="ellipse;whiteSpace=wrap;html=1;fontFamily=Helvetica;fontSize=11;fontColor=default;labelBackgroundColor=default;" parent="1" vertex="1">
          <mxGeometry x="871" y="260" width="140" height="70" as="geometry" />
        </mxCell>
        <mxCell id="no5BiNzNvJ6rJiU1EJ-R-22" value="Visualizzare la lista&lt;div&gt;&amp;nbsp;dei sondaggi&lt;/div&gt;" style="ellipse;whiteSpace=wrap;html=1;fontFamily=Helvetica;fontSize=11;fontColor=default;labelBackgroundColor=default;" parent="1" vertex="1">
          <mxGeometry x="1225" y="670" width="140" height="70" as="geometry" />
        </mxCell>
        <mxCell id="OjsmBEXkPZqhEoauiUw0-46" value="&amp;lt;&amp;lt;include&amp;gt;&amp;gt;" style="edgeStyle=orthogonalEdgeStyle;shape=connector;curved=0;rounded=1;orthogonalLoop=1;jettySize=auto;html=1;strokeColor=default;align=center;verticalAlign=middle;fontFamily=Helvetica;fontSize=11;fontColor=default;labelBackgroundColor=default;endArrow=none;endFill=0;dashed=1;dashPattern=8 8;startArrow=open;startFill=0;fontStyle=2" edge="1" parent="1" source="no5BiNzNvJ6rJiU1EJ-R-25" target="T0HQKuTrpSQo629NhJkZ-33">
          <mxGeometry relative="1" as="geometry" />
        </mxCell>
        <mxCell id="no5BiNzNvJ6rJiU1EJ-R-25" value="Approvare sondaggi" style="ellipse;whiteSpace=wrap;html=1;fontFamily=Helvetica;fontSize=11;fontColor=default;labelBackgroundColor=default;" parent="1" vertex="1">
          <mxGeometry x="502" y="670" width="139" height="70" as="geometry" />
        </mxCell>
        <mxCell id="OjsmBEXkPZqhEoauiUw0-41" style="edgeStyle=orthogonalEdgeStyle;shape=connector;curved=0;rounded=1;orthogonalLoop=1;jettySize=auto;html=1;strokeColor=default;align=center;verticalAlign=middle;fontFamily=Helvetica;fontSize=11;fontColor=default;labelBackgroundColor=default;endArrow=none;endFill=0;exitX=0;exitY=0.5;exitDx=0;exitDy=0;" edge="1" parent="1" source="no5BiNzNvJ6rJiU1EJ-R-30">
          <mxGeometry relative="1" as="geometry">
            <mxPoint x="1046.5172413793105" y="985" as="targetPoint" />
            <mxPoint x="1225" y="1510" as="sourcePoint" />
          </mxGeometry>
        </mxCell>
        <mxCell id="no5BiNzNvJ6rJiU1EJ-R-30" value="Modificare i dati statici" style="ellipse;whiteSpace=wrap;html=1;fontFamily=Helvetica;fontSize=11;fontColor=default;labelBackgroundColor=default;" parent="1" vertex="1">
          <mxGeometry x="1225" y="1260" width="140" height="70" as="geometry" />
        </mxCell>
        <mxCell id="OjsmBEXkPZqhEoauiUw0-42" style="edgeStyle=orthogonalEdgeStyle;shape=connector;curved=0;rounded=1;orthogonalLoop=1;jettySize=auto;html=1;strokeColor=default;align=center;verticalAlign=middle;fontFamily=Helvetica;fontSize=11;fontColor=default;labelBackgroundColor=default;endArrow=none;endFill=0;exitX=0;exitY=0.5;exitDx=0;exitDy=0;" edge="1" parent="1" source="no5BiNzNvJ6rJiU1EJ-R-35">
          <mxGeometry relative="1" as="geometry">
            <mxPoint x="1225" y="1649.9999999999995" as="sourcePoint" />
            <mxPoint x="1046.4943820224719" y="985" as="targetPoint" />
          </mxGeometry>
        </mxCell>
        <mxCell id="no5BiNzNvJ6rJiU1EJ-R-35" value="Vedere lista di richieste&lt;div&gt;e risposte&lt;/div&gt;" style="ellipse;whiteSpace=wrap;html=1;fontFamily=Helvetica;fontSize=11;fontColor=default;labelBackgroundColor=default;" parent="1" vertex="1">
          <mxGeometry x="1225" y="1400" width="140" height="70" as="geometry" />
        </mxCell>
        <mxCell id="no5BiNzNvJ6rJiU1EJ-R-38" value="Inviare Richieste" style="ellipse;whiteSpace=wrap;html=1;fontFamily=Helvetica;fontSize=11;fontColor=default;labelBackgroundColor=default;" parent="1" vertex="1">
          <mxGeometry x="1225" y="1540" width="140" height="70" as="geometry" />
        </mxCell>
        <mxCell id="OjsmBEXkPZqhEoauiUw0-43" style="edgeStyle=orthogonalEdgeStyle;shape=connector;curved=0;rounded=1;orthogonalLoop=1;jettySize=auto;html=1;strokeColor=default;align=center;verticalAlign=middle;fontFamily=Helvetica;fontSize=11;fontColor=default;labelBackgroundColor=default;endArrow=none;endFill=0;exitX=1;exitY=0.5;exitDx=0;exitDy=0;" edge="1" parent="1" source="BS8HZkznhosSry5eegpy-7">
          <mxGeometry relative="1" as="geometry">
            <mxPoint x="871.4999812153633" y="1320.025641025641" as="sourcePoint" />
            <mxPoint x="1046.5128205128206" y="985" as="targetPoint" />
            <Array as="points">
              <mxPoint x="1047" y="1295" />
            </Array>
          </mxGeometry>
        </mxCell>
        <mxCell id="BS8HZkznhosSry5eegpy-7" value="Rispondere alle richieste" style="ellipse;whiteSpace=wrap;html=1;fontFamily=Helvetica;fontSize=11;fontColor=default;labelBackgroundColor=default;" parent="1" vertex="1">
          <mxGeometry x="731.5" y="1260" width="140" height="70" as="geometry" />
        </mxCell>
        <mxCell id="BS8HZkznhosSry5eegpy-49" value="Confrontare dati&amp;nbsp;" style="ellipse;whiteSpace=wrap;html=1;fontFamily=Helvetica;fontSize=11;fontColor=default;labelBackgroundColor=default;" parent="1" vertex="1">
          <mxGeometry x="1770" y="1175" width="139" height="70" as="geometry" />
        </mxCell>
        <mxCell id="OjsmBEXkPZqhEoauiUw0-20" style="edgeStyle=orthogonalEdgeStyle;rounded=1;orthogonalLoop=1;jettySize=auto;html=1;entryX=0.5;entryY=0;entryDx=0;entryDy=0;dashed=1;dashPattern=12 12;strokeColor=default;align=center;verticalAlign=middle;fontFamily=Helvetica;fontSize=11;fontColor=default;labelBackgroundColor=default;startArrow=open;startFill=0;endArrow=none;endFill=0;curved=0;" edge="1" parent="1" source="4m4wcXOE1KVk2AsWaxH8-3" target="BS8HZkznhosSry5eegpy-49">
          <mxGeometry relative="1" as="geometry" />
        </mxCell>
        <mxCell id="OjsmBEXkPZqhEoauiUw0-22" value="&amp;lt;&amp;lt;include&amp;gt;&amp;gt;" style="edgeStyle=orthogonalEdgeStyle;rounded=1;orthogonalLoop=1;jettySize=auto;html=1;entryX=0.5;entryY=1;entryDx=0;entryDy=0;dashed=1;dashPattern=12 12;strokeColor=default;align=center;verticalAlign=middle;fontFamily=Helvetica;fontSize=11;fontColor=default;labelBackgroundColor=default;startArrow=open;startFill=0;endArrow=none;endFill=0;curved=0;fontStyle=2" edge="1" parent="1" source="4m4wcXOE1KVk2AsWaxH8-3" target="T0HQKuTrpSQo629NhJkZ-25">
          <mxGeometry x="-0.2391" relative="1" as="geometry">
            <mxPoint as="offset" />
          </mxGeometry>
        </mxCell>
        <mxCell id="4m4wcXOE1KVk2AsWaxH8-3" value="Visualizzare grafici dei dati" style="ellipse;whiteSpace=wrap;html=1;fontFamily=Helvetica;fontSize=11;fontColor=default;labelBackgroundColor=default;" parent="1" vertex="1">
          <mxGeometry x="1992" y="1100" width="139" height="70" as="geometry" />
        </mxCell>
        <mxCell id="Oo23eMLOR-PGpC1SXpXI-1" value="Creare nuovi&amp;nbsp;&lt;div&gt;sondaggi da file&lt;/div&gt;" style="ellipse;whiteSpace=wrap;html=1;fontFamily=Helvetica;fontSize=11;fontColor=default;labelBackgroundColor=default;" parent="1" vertex="1">
          <mxGeometry x="871" y="150" width="140" height="70" as="geometry" />
        </mxCell>
        <mxCell id="Oo23eMLOR-PGpC1SXpXI-5" value="rimuovere voti&amp;nbsp;&lt;div&gt;dai sondaggi&lt;/div&gt;" style="ellipse;whiteSpace=wrap;html=1;fontFamily=Helvetica;fontSize=11;fontColor=default;labelBackgroundColor=default;" parent="1" vertex="1">
          <mxGeometry x="776" y="535" width="140" height="70" as="geometry" />
        </mxCell>
        <mxCell id="OjsmBEXkPZqhEoauiUw0-5" style="edgeStyle=orthogonalEdgeStyle;rounded=1;orthogonalLoop=1;jettySize=auto;html=1;endArrow=block;endFill=1;curved=0;" edge="1" parent="1" source="9YCURv7oGawzrkc8PR10-7" target="no5BiNzNvJ6rJiU1EJ-R-30">
          <mxGeometry relative="1" as="geometry" />
        </mxCell>
        <mxCell id="9YCURv7oGawzrkc8PR10-7" value="Aggiungere dati statici" style="ellipse;whiteSpace=wrap;html=1;fontFamily=Helvetica;fontSize=11;fontColor=default;labelBackgroundColor=default;" parent="1" vertex="1">
          <mxGeometry x="1141" y="1080" width="140" height="70" as="geometry" />
        </mxCell>
        <mxCell id="OjsmBEXkPZqhEoauiUw0-4" style="edgeStyle=orthogonalEdgeStyle;rounded=1;orthogonalLoop=1;jettySize=auto;html=1;curved=0;endArrow=block;endFill=1;" edge="1" parent="1" source="9YCURv7oGawzrkc8PR10-8" target="no5BiNzNvJ6rJiU1EJ-R-30">
          <mxGeometry relative="1" as="geometry" />
        </mxCell>
        <mxCell id="9YCURv7oGawzrkc8PR10-8" value="Rimuovere dati statici" style="ellipse;whiteSpace=wrap;html=1;fontFamily=Helvetica;fontSize=11;fontColor=default;labelBackgroundColor=default;" parent="1" vertex="1">
          <mxGeometry x="1306" y="1080" width="140" height="70" as="geometry" />
        </mxCell>
        <mxCell id="mZ6OzVpP1dURqqN4XItQ-2" value="Vedere dati di&amp;nbsp;&lt;div&gt;un tipo specifico&lt;/div&gt;" style="ellipse;whiteSpace=wrap;html=1;fontFamily=Helvetica;fontSize=11;fontColor=default;labelBackgroundColor=default;" parent="1" vertex="1">
          <mxGeometry x="2000" y="755" width="139" height="70" as="geometry" />
        </mxCell>
        <mxCell id="OjsmBEXkPZqhEoauiUw0-25" value="Visualizzare tabella&amp;nbsp;&lt;div&gt;dei dati della città&lt;/div&gt;" style="ellipse;whiteSpace=wrap;html=1;fontFamily=Helvetica;fontSize=11;fontColor=default;labelBackgroundColor=default;" vertex="1" parent="1">
          <mxGeometry x="1770" y="895" width="139" height="70" as="geometry" />
        </mxCell>
        <mxCell id="OjsmBEXkPZqhEoauiUw0-28" value="&lt;font style=&quot;font-size: 12px;&quot;&gt;&amp;lt;&amp;lt;extend&amp;gt;&amp;gt;&lt;/font&gt;" style="edgeStyle=orthogonalEdgeStyle;rounded=0;orthogonalLoop=1;jettySize=auto;html=1;dashed=1;dashPattern=12 12;endArrow=open;endFill=0;fontStyle=2" edge="1" parent="1">
          <mxGeometry x="-0.1209" relative="1" as="geometry">
            <mxPoint x="2000" y="789.82" as="sourcePoint" />
            <mxPoint x="1909" y="789.82" as="targetPoint" />
            <mxPoint as="offset" />
          </mxGeometry>
        </mxCell>
        <mxCell id="OjsmBEXkPZqhEoauiUw0-31" style="edgeStyle=orthogonalEdgeStyle;shape=connector;curved=0;rounded=1;orthogonalLoop=1;jettySize=auto;html=1;entryX=1;entryY=0.5;entryDx=0;entryDy=0;strokeColor=default;align=center;verticalAlign=middle;fontFamily=Helvetica;fontSize=11;fontColor=default;labelBackgroundColor=default;endArrow=none;endFill=0;" edge="1" parent="1" source="OjsmBEXkPZqhEoauiUw0-30" target="no5BiNzNvJ6rJiU1EJ-R-35">
          <mxGeometry relative="1" as="geometry" />
        </mxCell>
        <mxCell id="OjsmBEXkPZqhEoauiUw0-32" style="edgeStyle=orthogonalEdgeStyle;shape=connector;curved=0;rounded=1;orthogonalLoop=1;jettySize=auto;html=1;entryX=1;entryY=0.5;entryDx=0;entryDy=0;strokeColor=default;align=center;verticalAlign=middle;fontFamily=Helvetica;fontSize=11;fontColor=default;labelBackgroundColor=default;endArrow=none;endFill=0;" edge="1" parent="1" source="OjsmBEXkPZqhEoauiUw0-30" target="no5BiNzNvJ6rJiU1EJ-R-30">
          <mxGeometry relative="1" as="geometry" />
        </mxCell>
        <mxCell id="OjsmBEXkPZqhEoauiUw0-30" value="Circoscrizione" style="shape=umlActor;verticalLabelPosition=bottom;verticalAlign=top;html=1;outlineConnect=0;" vertex="1" parent="1">
          <mxGeometry x="1620" y="1405" width="30" height="60" as="geometry" />
        </mxCell>
        <mxCell id="OjsmBEXkPZqhEoauiUw0-33" style="edgeStyle=orthogonalEdgeStyle;shape=connector;curved=0;rounded=1;orthogonalLoop=1;jettySize=auto;html=1;entryX=1.007;entryY=0.59;entryDx=0;entryDy=0;entryPerimeter=0;strokeColor=default;align=center;verticalAlign=middle;fontFamily=Helvetica;fontSize=11;fontColor=default;labelBackgroundColor=default;endArrow=none;endFill=0;" edge="1" parent="1" source="OjsmBEXkPZqhEoauiUw0-30" target="no5BiNzNvJ6rJiU1EJ-R-38">
          <mxGeometry relative="1" as="geometry" />
        </mxCell>
        <mxCell id="OjsmBEXkPZqhEoauiUw0-34" style="edgeStyle=orthogonalEdgeStyle;shape=connector;curved=0;rounded=1;orthogonalLoop=1;jettySize=auto;html=1;strokeColor=default;align=center;verticalAlign=middle;fontFamily=Helvetica;fontSize=11;fontColor=default;labelBackgroundColor=default;endArrow=block;endFill=0;" edge="1" parent="1" source="T0HQKuTrpSQo629NhJkZ-4">
          <mxGeometry relative="1" as="geometry">
            <mxPoint x="1620" y="470" as="targetPoint" />
            <Array as="points" />
          </mxGeometry>
        </mxCell>
        <mxCell id="OjsmBEXkPZqhEoauiUw0-37" style="edgeStyle=orthogonalEdgeStyle;shape=connector;curved=0;rounded=1;orthogonalLoop=1;jettySize=auto;html=1;entryX=0.5;entryY=0;entryDx=0;entryDy=0;entryPerimeter=0;strokeColor=default;align=center;verticalAlign=middle;fontFamily=Helvetica;fontSize=11;fontColor=default;labelBackgroundColor=default;endArrow=none;endFill=0;startArrow=block;startFill=0;" edge="1" parent="1" target="OjsmBEXkPZqhEoauiUw0-30">
          <mxGeometry relative="1" as="geometry">
            <mxPoint x="1635" y="980" as="sourcePoint" />
          </mxGeometry>
        </mxCell>
        <mxCell id="OjsmBEXkPZqhEoauiUw0-61" value="Rifiutare sondaggi" style="ellipse;whiteSpace=wrap;html=1;fontFamily=Helvetica;fontSize=11;fontColor=default;labelBackgroundColor=default;" vertex="1" parent="1">
          <mxGeometry x="324" y="670" width="139" height="70" as="geometry" />
        </mxCell>
        <mxCell id="OjsmBEXkPZqhEoauiUw0-64" value="Richiedere&amp;nbsp;&lt;div&gt;modifica sondaggi&lt;/div&gt;" style="ellipse;whiteSpace=wrap;html=1;fontFamily=Helvetica;fontSize=11;fontColor=default;labelBackgroundColor=default;" vertex="1" parent="1">
          <mxGeometry x="324" y="850" width="139" height="70" as="geometry" />
        </mxCell>
        <mxCell id="OjsmBEXkPZqhEoauiUw0-78" value="Abilitare utenti" style="ellipse;whiteSpace=wrap;html=1;fontFamily=Helvetica;fontSize=11;fontColor=default;labelBackgroundColor=default;" vertex="1" parent="1">
          <mxGeometry x="770" y="1000" width="140" height="70" as="geometry" />
        </mxCell>
        <mxCell id="OjsmBEXkPZqhEoauiUw0-82" style="edgeStyle=orthogonalEdgeStyle;shape=connector;curved=0;rounded=1;orthogonalLoop=1;jettySize=auto;html=1;entryX=0;entryY=0.5;entryDx=0;entryDy=0;strokeColor=default;align=center;verticalAlign=middle;fontFamily=Helvetica;fontSize=11;fontColor=default;labelBackgroundColor=default;endArrow=none;endFill=0;" edge="1" parent="1" source="OjsmBEXkPZqhEoauiUw0-87" target="OjsmBEXkPZqhEoauiUw0-90">
          <mxGeometry relative="1" as="geometry" />
        </mxCell>
        <mxCell id="OjsmBEXkPZqhEoauiUw0-83" style="edgeStyle=orthogonalEdgeStyle;shape=connector;curved=0;rounded=1;orthogonalLoop=1;jettySize=auto;html=1;entryX=0;entryY=0.5;entryDx=0;entryDy=0;strokeColor=default;align=center;verticalAlign=middle;fontFamily=Helvetica;fontSize=11;fontColor=default;labelBackgroundColor=default;endArrow=none;endFill=0;" edge="1" parent="1" source="OjsmBEXkPZqhEoauiUw0-87" target="OjsmBEXkPZqhEoauiUw0-88">
          <mxGeometry relative="1" as="geometry" />
        </mxCell>
        <mxCell id="OjsmBEXkPZqhEoauiUw0-84" style="edgeStyle=orthogonalEdgeStyle;shape=connector;curved=0;rounded=1;orthogonalLoop=1;jettySize=auto;html=1;entryX=0;entryY=0.5;entryDx=0;entryDy=0;strokeColor=default;align=center;verticalAlign=middle;fontFamily=Helvetica;fontSize=11;fontColor=default;labelBackgroundColor=default;endArrow=none;endFill=0;" edge="1" parent="1" source="OjsmBEXkPZqhEoauiUw0-87" target="OjsmBEXkPZqhEoauiUw0-91">
          <mxGeometry relative="1" as="geometry" />
        </mxCell>
        <mxCell id="OjsmBEXkPZqhEoauiUw0-85" style="edgeStyle=orthogonalEdgeStyle;shape=connector;curved=0;rounded=1;orthogonalLoop=1;jettySize=auto;html=1;entryX=0;entryY=0.5;entryDx=0;entryDy=0;strokeColor=default;align=center;verticalAlign=middle;fontFamily=Helvetica;fontSize=11;fontColor=default;labelBackgroundColor=default;endArrow=none;endFill=0;" edge="1" parent="1" source="OjsmBEXkPZqhEoauiUw0-87" target="OjsmBEXkPZqhEoauiUw0-95">
          <mxGeometry relative="1" as="geometry" />
        </mxCell>
        <mxCell id="OjsmBEXkPZqhEoauiUw0-86" style="edgeStyle=orthogonalEdgeStyle;rounded=1;orthogonalLoop=1;jettySize=auto;html=1;entryX=0;entryY=0.5;entryDx=0;entryDy=0;curved=0;endArrow=none;endFill=0;" edge="1" parent="1" source="OjsmBEXkPZqhEoauiUw0-87" target="OjsmBEXkPZqhEoauiUw0-92">
          <mxGeometry relative="1" as="geometry" />
        </mxCell>
        <mxCell id="OjsmBEXkPZqhEoauiUw0-87" value="Utente Anonimo" style="shape=umlActor;verticalLabelPosition=bottom;verticalAlign=top;html=1;outlineConnect=0;" vertex="1" parent="1">
          <mxGeometry x="1620" y="435" width="29" height="60" as="geometry" />
        </mxCell>
        <mxCell id="OjsmBEXkPZqhEoauiUw0-88" value="Cambiare lingua" style="ellipse;whiteSpace=wrap;html=1;fontFamily=Helvetica;fontSize=11;fontColor=default;labelBackgroundColor=default;" vertex="1" parent="1">
          <mxGeometry x="1770" y="170" width="139" height="70" as="geometry" />
        </mxCell>
        <mxCell id="OjsmBEXkPZqhEoauiUw0-89" value="&lt;i style=&quot;&quot;&gt;&amp;lt;&amp;lt;extend&amp;gt;&amp;gt;&lt;/i&gt;" style="edgeStyle=orthogonalEdgeStyle;shape=connector;curved=0;rounded=1;orthogonalLoop=1;jettySize=auto;html=1;strokeColor=default;align=center;verticalAlign=middle;fontFamily=Helvetica;fontSize=11;fontColor=default;labelBackgroundColor=default;endArrow=none;endFill=0;startArrow=open;startFill=0;dashed=1;dashPattern=12 12;" edge="1" parent="1" source="OjsmBEXkPZqhEoauiUw0-90" target="OjsmBEXkPZqhEoauiUw0-92">
          <mxGeometry x="0.084" relative="1" as="geometry">
            <mxPoint as="offset" />
          </mxGeometry>
        </mxCell>
        <mxCell id="OjsmBEXkPZqhEoauiUw0-90" value="Vedere dati&amp;nbsp;&lt;div&gt;base zone&lt;/div&gt;" style="ellipse;whiteSpace=wrap;html=1;fontFamily=Helvetica;fontSize=11;fontColor=default;labelBackgroundColor=default;" vertex="1" parent="1">
          <mxGeometry x="1770" y="430" width="139" height="70" as="geometry" />
        </mxCell>
        <mxCell id="OjsmBEXkPZqhEoauiUw0-91" value="Eseguire login" style="ellipse;whiteSpace=wrap;html=1;fontFamily=Helvetica;fontSize=11;fontColor=default;labelBackgroundColor=default;" vertex="1" parent="1">
          <mxGeometry x="1770" y="40" width="139" height="70" as="geometry" />
        </mxCell>
        <mxCell id="OjsmBEXkPZqhEoauiUw0-92" value="Interagire con la mappa" style="ellipse;whiteSpace=wrap;html=1;fontFamily=Helvetica;fontSize=11;fontColor=default;labelBackgroundColor=default;" vertex="1" parent="1">
          <mxGeometry x="1770" y="560" width="139" height="70" as="geometry" />
        </mxCell>
        <mxCell id="OjsmBEXkPZqhEoauiUw0-93" style="edgeStyle=orthogonalEdgeStyle;rounded=1;orthogonalLoop=1;jettySize=auto;html=1;entryX=1;entryY=0.5;entryDx=0;entryDy=0;curved=0;endArrow=none;endFill=0;" edge="1" parent="1" source="OjsmBEXkPZqhEoauiUw0-94" target="OjsmBEXkPZqhEoauiUw0-91">
          <mxGeometry relative="1" as="geometry" />
        </mxCell>
        <mxCell id="OjsmBEXkPZqhEoauiUw0-94" value="Servizio SSO" style="shape=umlActor;verticalLabelPosition=bottom;verticalAlign=top;html=1;" vertex="1" parent="1">
          <mxGeometry x="2030" y="45" width="29" height="60" as="geometry" />
        </mxCell>
        <mxCell id="OjsmBEXkPZqhEoauiUw0-95" value="Vedere informazioni&amp;nbsp;&lt;div&gt;sugli attributi&lt;/div&gt;" style="ellipse;whiteSpace=wrap;html=1;fontFamily=Helvetica;fontSize=11;fontColor=default;labelBackgroundColor=default;" vertex="1" parent="1">
          <mxGeometry x="1770" y="300" width="139" height="70" as="geometry" />
        </mxCell>
        <mxCell id="OjsmBEXkPZqhEoauiUw0-96" value="&lt;i style=&quot;&quot;&gt;&amp;lt;&amp;lt;include&amp;gt;&amp;gt;&lt;/i&gt;" style="edgeStyle=orthogonalEdgeStyle;shape=connector;curved=0;rounded=1;orthogonalLoop=1;jettySize=auto;html=1;strokeColor=default;align=center;verticalAlign=middle;fontFamily=Helvetica;fontSize=11;fontColor=default;labelBackgroundColor=default;endArrow=open;endFill=0;startArrow=none;startFill=0;dashed=1;dashPattern=12 12;exitX=0.5;exitY=1;exitDx=0;exitDy=0;entryX=0.5;entryY=0;entryDx=0;entryDy=0;" edge="1" parent="1" source="OjsmBEXkPZqhEoauiUw0-95" target="OjsmBEXkPZqhEoauiUw0-90">
          <mxGeometry x="0.084" relative="1" as="geometry">
            <mxPoint as="offset" />
            <mxPoint x="1850" y="605" as="sourcePoint" />
            <mxPoint x="1840" y="530" as="targetPoint" />
          </mxGeometry>
        </mxCell>
      </root>
    </mxGraphModel>
  </diagram>
</mxfile>
